<svg style="display:none;">
    <g id="facebook">
        <path
            d="M22.8523 5.77353C22.2735 2.69436 19.9879 0.680537 16.8529 0.512889C16.6775 0.503661 16.5032 0.4729 16.3281 0.452393H6.74506C6.14957 0.546726 5.54512 0.573129 4.95579 0.714886C2.22832 1.37138 0.398037 3.53336 0.140927 6.34825C0.0681258 7.1447 0.115293 7.94526 0.0012207 8.7371V15.4171C0.109397 16.3261 0.0694077 17.2446 0.225007 18.1536C0.712056 21.0028 2.74331 22.991 5.60818 23.3765C6.01602 23.4314 6.4254 23.4744 6.83401 23.5229H16.2394C16.806 23.4288 17.3814 23.4168 17.9469 23.2978C20.7231 22.7134 22.6262 20.6078 22.92 17.7624C22.9851 17.1305 23.0225 16.4958 23.0738 15.8624V8.02396C22.9694 7.27698 22.9928 6.52 22.8523 5.77353ZM20.8239 16.8278C20.801 17.3167 20.7261 17.8018 20.6003 18.2748C20.1133 20.0505 18.7167 21.1222 16.7942 21.274C16.2784 21.315 15.7626 21.336 15.2469 21.3481L15.2525 15.4174V15.1726C15.2548 14.8673 15.2651 14.8549 15.5627 14.8539C16.4052 14.851 17.2478 14.8489 18.0905 14.8475V11.9491C17.2562 11.9443 16.4218 11.9396 15.5873 11.935C15.2541 11.9332 15.2541 11.9329 15.2528 11.5999C15.2528 11.066 15.2489 10.5323 15.2543 9.9983C15.2597 9.47152 15.5747 9.15237 16.0961 9.14648C16.7608 9.1393 17.4255 9.14084 18.0902 9.13853C18.0902 8.2157 18.0879 7.29492 18.093 6.37286C18.093 6.26135 18.0674 6.2352 17.9567 6.23597C17.1718 6.24161 16.3866 6.23905 15.6017 6.23905C14.8795 6.36004 14.2313 6.63253 13.6822 7.13625C12.9867 7.773 12.6771 8.60149 12.4792 9.491C12.3231 10.1926 12.341 10.905 12.3436 11.6168C12.3436 11.9344 12.3436 11.9339 12.0185 11.9357C11.1837 11.9402 10.349 11.9449 9.51431 11.9498V14.8485L12.0247 14.8547C12.3379 14.8547 12.3438 14.8619 12.3438 15.1841V21.1389C12.3438 21.2158 12.3474 21.2927 12.3512 21.3696C12.0741 21.3722 11.7973 21.3758 11.5202 21.3832C9.82192 21.3319 8.12315 21.414 6.42463 21.2837C3.88018 21.0879 2.36469 19.5132 2.24575 16.9329C2.11937 14.19 2.15987 11.4448 2.1773 8.70096C2.18243 7.91937 2.22011 7.13163 2.33111 6.35081C2.63385 4.23292 4.0932 2.84996 6.23263 2.71076C9.48073 2.49954 12.7324 2.61361 15.9828 2.63386C16.4522 2.63694 16.9254 2.71076 17.3891 2.79664C19.2707 3.14244 20.476 4.43235 20.7357 6.33415C20.8605 7.24775 20.8895 8.16879 20.8967 9.08496C20.9161 11.6663 20.9656 14.2482 20.8239 16.8278Z"
            />
    </g>
    <g id="instagram">
        <path
            d="M11.9678 0.479318C13.6822 0.479318 15.3966 0.465645 17.111 0.486155C17.8647 0.492992 18.6047 0.643406 19.2939 0.957908C19.759 1.16644 20.2071 1.4194 20.645 1.68263C20.8691 1.81595 21.0558 2.01422 21.2595 2.17831C21.3274 2.23301 21.4123 2.27061 21.4734 2.32872C21.9249 2.77997 22.2983 3.28932 22.6208 3.84312C22.9943 4.49263 23.2489 5.18659 23.3847 5.91815C23.4628 6.3352 23.4899 6.76935 23.4933 7.19324C23.5001 10.5092 23.5069 13.8251 23.4899 17.1411C23.4865 17.9786 23.2998 18.7956 22.9298 19.5545C22.7159 19.9887 22.4783 20.416 22.227 20.8296C22.1218 21.004 21.9521 21.1407 21.8163 21.298C21.7246 21.4039 21.6601 21.5338 21.5583 21.6193C21.212 21.903 20.8623 22.1833 20.5025 22.4466C20.0204 22.7987 19.4738 23.038 18.9137 23.226C18.418 23.3901 17.9088 23.5166 17.3826 23.52C13.8893 23.5337 10.3926 23.5542 6.89927 23.5439C6.41041 23.5439 5.92155 23.4174 5.43609 23.3285C4.88612 23.226 4.38029 22.9867 3.89143 22.7269C3.57231 22.556 3.28375 22.3269 2.99519 22.1047C2.72699 21.8962 2.4588 21.6842 2.23474 21.4347C1.96655 21.1339 1.7323 20.8023 1.50824 20.4673C1.16536 19.9511 0.903958 19.3904 0.747795 18.7888C0.649344 18.4127 0.567867 18.0299 0.516944 17.6436C0.377755 16.5804 0.452442 15.5104 0.445652 14.4439C0.435468 12.0407 0.432073 9.63405 0.445652 7.23085C0.452442 6.23265 0.63237 5.26179 1.08389 4.35931C1.22986 4.06532 1.36566 3.76107 1.5388 3.48076C1.68138 3.25172 1.87489 3.05686 2.04802 2.84492C2.16005 2.70818 2.26529 2.56118 2.3909 2.4347C2.80168 2.01764 3.26678 1.67237 3.77261 1.37838C4.3735 1.03311 5.01173 0.780146 5.68391 0.633151C6.06414 0.551107 6.45455 0.489574 6.84156 0.486155C8.54917 0.472481 10.2568 0.479318 11.9678 0.479318ZM2.64891 12.0031C2.64891 13.5927 2.64891 15.1823 2.64891 16.7719C2.64891 16.9804 2.66589 17.1889 2.68286 17.3975C2.7236 17.9239 2.89334 18.4093 3.1208 18.8811C3.4467 19.5579 3.93217 20.0946 4.52627 20.5288C5.29011 21.0894 6.16938 21.3561 7.10975 21.3595C10.3518 21.3663 13.5939 21.3663 16.8326 21.3595C17.1551 21.3595 17.481 21.3219 17.7968 21.2535C18.9001 21.0211 19.776 20.4057 20.4481 19.5135C21.0321 18.7409 21.3104 17.8453 21.3138 16.8778C21.3206 13.7738 21.3172 10.6699 21.3138 7.56244C21.3138 7.19666 21.2867 6.82747 21.2459 6.46169C21.1611 5.73355 20.8589 5.08403 20.4312 4.50289C20.1053 4.05848 19.7047 3.68587 19.2396 3.38162C18.5199 2.90645 17.7187 2.67741 16.87 2.67057C13.6448 2.6569 10.4197 2.66374 7.19462 2.66716C6.90606 2.66716 6.61071 2.68767 6.32554 2.73894C5.4972 2.89278 4.75712 3.23804 4.13247 3.81235C3.7149 4.19522 3.36862 4.63621 3.11401 5.1524C2.80847 5.76773 2.64212 6.40699 2.64212 7.09411C2.64891 8.73499 2.64891 10.369 2.64891 12.0031Z"
            />
        <path
            d="M12.0559 17.9172C10.8813 17.9172 9.88661 17.6506 8.97 17.1276C8.01944 16.584 7.26578 15.832 6.73279 14.8645C6.38991 14.2458 6.15566 13.5894 6.05382 12.8921C5.97234 12.3485 5.96216 11.805 6.03684 11.2546C6.12851 10.5743 6.32201 9.93163 6.62415 9.32314C6.83124 8.90608 7.09604 8.52663 7.39139 8.16427C7.75125 7.72328 8.17221 7.3575 8.64409 7.05326C9.34004 6.5986 10.0971 6.27042 10.9254 6.15761C11.3192 6.10292 11.7198 6.05164 12.1136 6.05848C12.9284 6.07215 13.716 6.24649 14.4629 6.57809C15.0536 6.84131 15.5832 7.19684 16.0585 7.63782C17.0158 8.52663 17.6031 9.62055 17.8204 10.9093C17.8951 11.364 17.9392 11.8323 17.9188 12.2904C17.8781 13.1895 17.6472 14.0475 17.2025 14.8406C16.9004 15.3807 16.5439 15.873 16.089 16.2935C15.3591 16.9703 14.5138 17.4455 13.5531 17.7053C13.0269 17.8489 12.4905 17.9241 12.0559 17.9172ZM12.0695 15.8012C12.2257 15.7807 12.4939 15.7602 12.7587 15.7089C13.3799 15.5858 13.9401 15.3329 14.4255 14.9124C14.8669 14.5261 15.2505 14.1022 15.4847 13.5552C15.7903 12.8442 15.8853 12.1126 15.7597 11.3435C15.5934 10.3453 15.1045 9.54192 14.3067 8.94369C13.5598 8.38305 12.7077 8.16427 11.7775 8.20187C11.085 8.22922 10.4502 8.43091 9.87303 8.80011C9.25177 9.19324 8.78328 9.73678 8.46077 10.4C8.1111 11.1179 8.03302 11.8802 8.16202 12.6562C8.34195 13.7193 8.93945 14.5329 9.80174 15.1414C10.44 15.5858 11.1767 15.7807 12.0695 15.8012Z"
            />
        <path
            d="M18.0478 7.3199C17.2297 7.33357 16.6254 6.68406 16.6458 5.91148C16.6661 5.03634 17.2501 4.50648 18.0546 4.49622C18.8253 4.48597 19.5042 5.09446 19.4567 6.02429C19.4228 6.69089 18.8422 7.35066 18.0478 7.3199Z"
            />
    </g>
    <g id="youtube">
        <path
            d="M13.1786 0.666748C9.51297 0.666748 6.26064 1.12787 4.2849 1.46362C2.65194 1.74129 1.34342 3.15123 1.04364 5.04956C0.786872 6.66598 0.529785 9.03925 0.529785 12.0001C0.529785 14.9595 0.786872 17.3342 1.04364 18.9506C1.34468 20.8489 2.65194 22.2603 4.2849 22.5365C6.26697 22.8723 9.53321 23.3334 13.1786 23.3334C16.824 23.3334 20.089 22.8723 22.0723 22.5365C23.7065 22.2603 25.0138 20.8504 25.3135 18.9506C25.569 17.3328 25.8274 14.9524 25.8274 12.0001C25.8274 9.04633 25.5703 6.6674 25.3135 5.04956C25.0138 3.15123 23.7052 1.74129 22.0723 1.46362C20.0965 1.12787 16.843 0.666748 13.1786 0.666748ZM13.1786 3.50008C16.5217 3.50008 19.5137 3.81246 21.3213 4.11987C22.0992 4.25162 22.6829 4.95394 22.8233 5.84644C23.0485 7.2631 23.2976 9.35092 23.2976 12.0001C23.2976 14.6478 23.0472 16.7371 22.8233 18.1537C22.6816 19.0476 22.1004 19.7485 21.3213 19.8803C19.5062 20.1877 16.5014 20.5001 13.1786 20.5001C9.85449 20.5001 6.84976 20.1877 5.03592 19.8803C4.25802 19.7485 3.63602 19.0462 3.49435 18.1537C3.27047 16.7399 3.05955 14.6563 3.05955 12.0001C3.05955 9.34242 3.27047 7.26027 3.49435 5.84644C3.63602 4.95394 4.25802 4.25162 5.03592 4.11987C6.84344 3.81246 9.83551 3.50008 13.1786 3.50008ZM9.38395 6.33342V17.6668L18.2381 12.0001L9.38395 6.33342Z"
            />
    </g>
    <g id="mail-envelope">
        <path d="M9.99998 11.7283L19.0979 3.73901L0.90239 3.73901L9.99998 11.7283Z" fill="white"/>
        <path d="M13.6241 9.99751L20 15.5966L20 4.39844L13.6241 9.99751Z" fill="white"/>
        <path d="M12.7977 10.7231L9.99989 13.1798L7.20266 10.7231L0.896532 16.2609L19.1035 16.2609L12.7977 10.7231Z" fill="white"/>
        <path d="M6.37622 9.99779L4.3869e-05 4.39844L4.289e-05 15.5966L6.37622 9.99779Z" fill="white"/>
    </g>
    <g id="arrow">
        <path d="M0.768081 9.00385L7.64784 15.6968C8.08548 16.1228 8.79503 16.1228 9.23245 15.6968C9.66991 15.2712 9.66991 14.5809 9.23245 14.1554L3.14493 8.23313L9.23228 2.31109C9.66973 1.88532 9.66973 1.19511 9.23228 0.76952C8.79482 0.343754 8.0853 0.343753 7.64767 0.76952L0.767904 7.46259C0.549175 7.67549 0.439933 7.95423 0.439933 8.2331C0.439933 8.51211 0.549387 8.79105 0.768081 9.00385Z"/>
    </g>
    <g id="linkedin">
        <path d="M22.8511 5.32114C22.2722 2.24196 19.9867 0.228144 16.8516 0.0604967C16.6763 0.0512684 16.502 0.0205073 16.3269 0H6.74383C6.14835 0.0943337 5.5439 0.120737 4.95457 0.262494C2.2271 0.918985 0.396817 3.08097 0.139706 5.89586C0.0669051 6.69231 0.114072 7.49287 0 8.28471V14.9647C0.108176 15.8737 0.068187 16.7922 0.223786 17.7012C0.710835 20.5504 2.74209 22.5386 5.60696 22.9241C6.0148 22.979 6.42418 23.022 6.83279 23.0705H16.2382C16.8047 22.9764 17.3802 22.9644 17.9457 22.8454C20.7219 22.261 22.625 20.1554 22.9187 17.31C22.9838 16.6781 23.0213 16.0434 23.0725 15.41V7.57156C22.9682 6.82458 22.9915 6.06761 22.8511 5.32114ZM20.8226 16.3754C20.7998 16.8643 20.7249 17.3494 20.5991 17.8224C20.1121 19.5981 18.7155 20.6699 16.7929 20.8216C14.3989 21.012 14.6014 20.8481 11.519 20.9308C9.8207 20.8795 8.12193 20.9616 6.42341 20.8314C3.87896 20.6355 2.36347 19.0608 2.24453 16.4805C2.11815 13.7376 2.15865 10.9924 2.17608 8.24856C2.18121 7.46698 2.21889 6.67924 2.32989 5.89842C2.63263 3.78053 4.09198 2.39756 6.23141 2.25837C9.47951 2.04714 12.7312 2.16122 15.9816 2.18147C16.451 2.18454 16.9242 2.25837 17.3879 2.34424C19.2695 2.69005 20.4748 3.97996 20.7344 5.88176C20.8593 6.79536 20.8883 7.7164 20.8954 8.63256C20.9149 11.2139 20.9644 13.7958 20.8226 16.3754Z" />
        <path d="M8.89311 6.32212C8.89311 7.05509 8.33509 7.64263 7.43793 7.64263H7.42122C6.55749 7.64317 6 7.05455 6 6.32212C6 5.57157 6.57528 5 7.45464 5C8.33509 4.99947 8.87694 5.57157 8.89311 6.32212ZM6.15096 16.3328H8.72382V8.68722H6.15096V16.3328ZM15.0384 8.50824C13.6738 8.50824 13.0629 9.24867 12.7195 9.7707V9.7952H12.7028C12.7093 9.78774 12.7152 9.77922 12.7195 9.7707V8.68775H10.1472C10.1806 9.40421 10.1472 16.3333 10.1472 16.3333H12.7195V12.0634C12.7195 11.8332 12.7351 11.6079 12.8042 11.4433C12.9907 10.9884 13.4145 10.5127 14.1229 10.5127C15.0551 10.5127 15.4277 11.2153 15.4277 12.2423V16.3333H18V11.9499C18.0005 9.59971 16.7303 8.50824 15.0384 8.50824Z" />
    </g>
    <g id="twitter">
        <path d="M22.8511 5.32114C22.2722 2.24196 19.9867 0.228144 16.8516 0.0604967C16.6763 0.0512684 16.502 0.0205073 16.3269 0H6.74383C6.14835 0.0943337 5.5439 0.120737 4.95457 0.262494C2.2271 0.918985 0.396817 3.08097 0.139706 5.89586C0.0669051 6.69231 0.114072 7.49287 0 8.28471V14.9647C0.108176 15.8737 0.068187 16.7922 0.223786 17.7012C0.710835 20.5504 2.74209 22.5386 5.60696 22.9241C6.0148 22.979 6.42418 23.022 6.83279 23.0705H16.2382C16.8047 22.9764 17.3802 22.9644 17.9457 22.8454C20.7219 22.261 22.625 20.1554 22.9187 17.31C22.9838 16.6781 23.0213 16.0434 23.0725 15.41V7.57156C22.9682 6.82458 22.9915 6.06761 22.8511 5.32114ZM20.8226 16.3754C20.7998 16.8643 20.7249 17.3494 20.5991 17.8224C20.1121 19.5981 18.7155 20.6699 16.7929 20.8216C14.3989 21.012 14.6014 20.8481 11.519 20.9308C9.8207 20.8795 8.12193 20.9616 6.42341 20.8314C3.87896 20.6355 2.36347 19.0608 2.24453 16.4805C2.11815 13.7376 2.15865 10.9924 2.17608 8.24856C2.18121 7.46698 2.21889 6.67924 2.32989 5.89842C2.63263 3.78053 4.09198 2.39756 6.23141 2.25837C9.47951 2.04714 12.7312 2.16122 15.9816 2.18147C16.451 2.18454 16.9242 2.25837 17.3879 2.34424C19.2695 2.69005 20.4748 3.97996 20.7344 5.88176C20.8593 6.79536 20.8883 7.7164 20.8954 8.63256C20.9149 11.2139 20.9644 13.7958 20.8226 16.3754Z" />
        <path d="M19 7.36491C18.4794 7.59638 17.9246 7.74981 17.3462 7.82431C17.9412 7.46424 18.3954 6.89841 18.6089 6.2164C18.0541 6.55164 17.4416 6.78843 16.7889 6.92058C16.2621 6.35209 15.5114 6 14.6924 6C13.1034 6 11.8241 7.30726 11.8241 8.90985C11.8241 9.14043 11.8434 9.36215 11.8906 9.57323C9.5045 9.45528 7.39313 8.29613 5.97475 6.53035C5.72712 6.96581 5.58188 7.46424 5.58188 8.0008C5.58188 9.00829 6.09375 9.90138 6.85675 10.4184C6.39562 10.4096 5.94325 10.2739 5.56 10.0601C5.56 10.069 5.56 10.0805 5.56 10.0921C5.56 11.5057 6.55487 12.68 7.8595 12.9505C7.62587 13.0152 7.37125 13.0462 7.107 13.0462C6.92325 13.0462 6.73775 13.0356 6.56362 12.9966C6.9355 14.1486 7.99075 14.9956 9.2455 15.0231C8.269 15.7973 7.02912 16.2638 5.68688 16.2638C5.4515 16.2638 5.22575 16.2532 5 16.2239C6.27137 17.0549 7.77813 17.5294 9.403 17.5294C14.6845 17.5294 17.572 13.095 17.572 9.25129C17.572 9.1227 17.5676 8.99853 17.5615 8.87526C18.1311 8.46552 18.6097 7.95379 19 7.36491Z" />
    </g>
</svg>
